<!DOCTYPE svg PUBLIC "-//W3C//DTD SVG 1.1//EN" "http://www.w3.org/Graphics/SVG/1.1/DTD/svg11.dtd">
<!-- Uploaded to: SVG Repo, www.svgrepo.com, Transformed by: SVG Repo Mixer Tools -->
<svg version="1.1" id="Layer_1" xmlns="http://www.w3.org/2000/svg" xmlns:xlink="http://www.w3.org/1999/xlink" viewBox="0 0 512.002 512.002" xml:space="preserve" width="256px" height="256px" fill="#000000" stroke="#000000" stroke-width="0.005120019999999999">
<g id="SVGRepo_bgCarrier" stroke-width="0"/>
<g id="SVGRepo_tracerCarrier" stroke-linecap="round" stroke-linejoin="round" stroke="#CCCCCC" stroke-width="1.024004"/>
<g id="SVGRepo_iconCarrier"> <path style="fill:#00ff00;" d="M357.154,198.645c-81.171,0-146.973,65.802-146.973,146.973S275.983,492.59,357.154,492.59 s146.973-65.802,146.973-146.973C504.128,264.447,438.325,198.645,357.154,198.645z M357.154,462.719 c-64.569,0-117.1-52.532-117.1-117.1c0-64.569,52.532-117.101,117.1-117.101c64.569,0,117.1,52.532,117.1,117.101 C474.255,410.187,421.724,462.719,357.154,462.719z"/> <path style="fill:#80ff00;" d="M357.152,198.65c-81.166,0-146.965,65.8-146.965,146.965h29.872 c0-64.571,52.533-117.094,117.094-117.094c64.572,0,117.104,52.522,117.104,117.094h29.872 C504.128,264.45,438.328,198.65,357.152,198.65z"/> <path style="fill:#00ff00;" d="M69.782,370.712c-33.661,0-60.94,27.279-60.94,60.94s27.279,60.94,60.94,60.94 s60.94-27.279,60.94-60.94C130.722,397.991,103.442,370.712,69.782,370.712z M69.782,462.72c-17.13,0-31.068-13.939-31.068-31.068 s13.939-31.068,31.068-31.068s31.068,13.939,31.068,31.068S86.911,462.72,69.782,462.72z"/> <path style="fill:#80ff00;" d="M69.782,370.712c-33.661,0-60.94,27.279-60.94,60.94h29.872c0-17.13,13.939-31.068,31.068-31.068 s31.068,13.939,31.068,31.068h29.872C130.722,397.991,103.442,370.712,69.782,370.712z"/> <rect x="343.409" y="134.245" style="fill:#ffff00;" width="27.479" height="211.369"/> <g> <rect x="343.409" y="134.245" style="fill:#ffff80;" width="27.479" height="120.704"/> <path style="fill:#ffff80;" d="M69.781,175.345h92.784c7.361,0,13.329-5.968,13.329-13.329l0,0c0-6.728-5.014-12.401-11.69-13.228 l-56.461-6.992C87.577,139.298,69.781,155.027,69.781,175.345L69.781,175.345z"/> </g> <path style="fill:#80ff00;" d="M309.956,46.893h-79.461c-7.589,0-13.741-6.152-13.741-13.741l0,0 c0-7.589,6.152-13.741,13.741-13.741h79.461V46.893z"/> <circle style="fill:#ffff00;" cx="357.159" cy="346.464" r="27.814"/> <path d="M471.337,241.025c-24.425-26.65-57.075-43.791-92.574-48.753v-65.9h-13.736v-25.187h10.493V85.44h-10.493V68.619 c0-23.898-19.444-43.34-43.341-43.34h-3.857V11.538h-87.333c-11.917,0-21.613,9.696-21.613,21.614s9.695,21.613,21.613,21.613 h87.333V41.023h3.857c15.217,0,27.597,12.38,27.597,27.596v16.82h-10.499v15.744h10.499v25.187h-13.742v20.978 c-69.857,2.466-135.291,30.039-185.79,78.295c-10.713-11.735-17.423-26.625-19.105-42.428h31.918c11.69,0,21.201-9.51,21.201-21.2 c0-10.682-7.994-19.727-18.596-21.041l-56.461-6.991c-11.85-1.464-23.776,2.226-32.723,10.133 c-8.945,7.907-14.076,19.289-14.076,31.228v7.872h52.926c1.756,20.014,10.156,38.92,23.82,53.626 c-26.527,28.258-46.636,61.066-59.604,96.62C49.901,330.746,20.766,341.104,0,361.87l11.133,11.133 c16.576-16.578,39.51-25.263,62.779-24.128c-1.388,4.618-2.65,9.278-3.802,13.973c-0.11-0.001-0.218-0.008-0.329-0.008 c-37.943,0-68.813,30.869-68.813,68.812s30.869,68.813,68.813,68.813c37.942,0,68.812-30.869,68.812-68.813 c0-32.402-22.519-59.629-52.725-66.893c11.621-45.953,35.324-88.128,69.518-122.597c48.231-48.62,111.944-76.504,180.155-79.052 v29.163c-35.495,4.961-68.141,22.103-92.564,48.753c-26.22,28.611-40.661,65.754-40.661,104.59 c0,85.384,69.46,154.848,154.837,154.848c85.384,0,154.848-69.465,154.848-154.848C512,306.779,497.559,269.635,471.337,241.025z M302.085,39.021h-71.589c-3.236,0-5.869-2.633-5.869-5.869c0-3.237,2.633-5.87,5.869-5.87h71.589V39.021z M78.878,167.472 c1.409-4.417,3.991-8.426,7.534-11.559c5.567-4.918,12.988-7.223,20.361-6.305l56.461,6.991c2.729,0.338,4.787,2.666,4.787,5.416 c0,3.008-2.448,5.456-5.457,5.456H78.878V167.472z M92.976,431.65c0,12.79-10.405,23.196-23.195,23.196 s-23.196-10.406-23.196-23.196c0-10.324,6.781-19.091,16.124-22.09c-0.229,3.075-0.399,6.162-0.53,9.255 c-4.382,2.606-7.334,7.376-7.334,12.835c0,8.236,6.7,14.936,14.936,14.936s14.936-6.7,14.936-14.936 c0-5.231-2.708-9.835-6.791-12.503c0.132-3.009,0.304-6.011,0.533-9.001C86.962,413.59,92.976,421.929,92.976,431.65z M122.849,431.65c0,29.262-23.806,53.069-53.068,53.069s-53.069-23.807-53.069-53.069c0-28.233,22.164-51.379,50.005-52.972 c-0.884,4.773-1.648,9.577-2.289,14.41c-18.946,2.618-33.587,18.908-33.587,38.563c0,21.472,17.469,38.94,38.94,38.94 c21.471,0,38.939-17.469,38.939-38.94c0-17.872-12.106-32.96-28.545-37.52c0.642-4.698,1.402-9.369,2.288-14.005 C105.619,385.828,122.849,406.76,122.849,431.65z M351.285,142.116h11.735v169.148c-1.909-0.317-3.867-0.49-5.864-0.49 c-2,0-3.959,0.173-5.87,0.491V142.116z M357.154,326.517c10.997,0,19.942,8.946,19.942,19.942c0,8.201-4.979,15.257-12.07,18.317 v-18.122h-15.744v18.122c-7.091-3.06-12.07-10.115-12.07-18.317C337.212,335.464,346.159,326.517,357.154,326.517z M349.282,381.261 v22.209h-14.666v15.744h30.41v-37.953c15.901-3.596,27.814-17.829,27.814-34.801c0-11.561-5.529-21.851-14.078-28.376v-79.537 c50.532,10.116,87.621,54.667,87.621,107.068c0,60.231-49.001,109.232-109.232,109.232c-60.225,0-109.222-49.002-109.222-109.232 c0-52.399,37.085-96.951,87.61-107.068v79.541c-1.443,1.102-2.798,2.313-4.057,3.619l-18.702-10.798l7.336-12.704l-13.634-7.872 l-15.21,26.34l32.037,18.496c-1.188,3.552-1.841,7.345-1.841,11.292C321.468,363.433,333.381,377.665,349.282,381.261z M357.151,484.719c-76.695,0-139.093-62.402-139.093-139.104c0-34.887,12.971-68.252,36.524-93.953 c21.441-23.395,49.929-38.625,80.958-43.468v14.338c-59.394,10.346-103.354,62.064-103.354,123.084 c0,68.912,56.059,124.976,124.966,124.976c68.912,0,124.976-56.065,124.976-124.976c0-61.021-43.965-112.739-103.365-123.084 v-14.338c31.034,4.842,59.526,20.074,80.968,43.468c23.553,25.698,36.525,59.065,36.525,93.953 C496.256,422.317,433.854,484.719,357.151,484.719z"/> </g>
</svg>