<!DOCTYPE svg PUBLIC "-//W3C//DTD SVG 1.1//EN" "http://www.w3.org/Graphics/SVG/1.1/DTD/svg11.dtd">
<!-- Uploaded to: SVG Repo, www.svgrepo.com, Transformed by: SVG Repo Mixer Tools -->
<svg version="1.1" id="Layer_1" xmlns="http://www.w3.org/2000/svg" xmlns:xlink="http://www.w3.org/1999/xlink" viewBox="0 0 512.014 512.014" xml:space="preserve" width="256px" height="256px" fill="#000000">
<g id="SVGRepo_bgCarrier" stroke-width="0"/>
<g id="SVGRepo_tracerCarrier" stroke-linecap="round" stroke-linejoin="round"/>
<g id="SVGRepo_iconCarrier"> <path style="fill:#80ff80;" d="M280.74,231.309c6.099,6.099,11.245,12.791,15.437,19.889L424.695,122.68l-35.327-35.327 L260.85,215.871C267.948,220.064,274.64,225.209,280.74,231.309z"/> <path style="fill:#00ff00;" d="M257.232,390.07c8.446-4.523,16.383-10.331,23.508-17.455c39.021-39.021,39.021-102.286,0-141.306 c-39.021-39.021-102.286-39.021-141.306,0c-7.125,7.125-12.932,15.062-17.455,23.508c-28.264,2.446-55.855,14.475-77.485,36.106 c-48.776,48.776-48.776,127.856,0,176.633s127.857,48.776,176.633,0C242.756,445.924,254.785,418.334,257.232,390.07z"/> <circle style="fill:#008000;" cx="190.653" cy="321.391" r="37.469"/> <rect x="62.168" y="390.559" transform="matrix(-0.7071 -0.7071 0.7071 -0.7071 -106.4521 768.249)" style="fill:#FFFFFF;" width="87.431" height="31.225"/> <rect x="404.28" y="36.25" transform="matrix(-0.7071 -0.7071 0.7071 -0.7071 689.3322 438.5922)" style="fill:#00ff40;" width="62.443" height="80.561"/> <rect x="380.81" y="51.29" transform="matrix(-0.7071 0.7071 -0.7071 -0.7071 762.7676 -191.7215)" style="fill:#FFFFFF;" width="80.561" height="21.647"/> <path d="M133.862,225.738c-6.496,6.497-12.118,13.768-16.753,21.66c-29.489,3.504-57.116,16.884-78.186,37.953 C13.846,310.43,0.035,343.772,0.035,379.237c0,35.466,13.811,68.809,38.888,93.887c25.078,25.078,58.422,38.889,93.887,38.889 c35.466,0,68.81-13.811,93.887-38.889c21.07-21.068,34.449-48.695,37.955-78.186c7.892-4.635,15.163-10.258,21.66-16.753 c20.36-20.36,31.573-47.43,31.573-76.223s-11.213-55.864-31.573-76.223C244.279,183.709,175.892,183.71,133.862,225.738z M275.17,367.044c-6.406,6.405-13.692,11.815-21.657,16.081l-3.761,2.015l-0.368,4.251c-2.37,27.368-14.382,53.149-33.829,72.593 c-22.102,22.103-51.488,34.275-82.746,34.275s-60.643-12.173-82.745-34.275c-22.103-22.103-34.275-51.489-34.275-82.746 s12.173-60.643,34.275-82.746c19.446-19.446,45.227-31.46,72.593-33.828l4.252-0.369l2.014-3.761 c4.265-7.964,9.676-15.25,16.082-21.656c17.943-17.943,41.512-26.915,65.082-26.915s47.14,8.972,65.083,26.915 c17.385,17.384,26.958,40.497,26.958,65.083C302.127,326.546,292.554,349.659,275.17,367.044z"/> <path d="M190.656,276.043c-12.112,0-23.5,4.717-32.065,13.283c-17.68,17.681-17.68,46.45,0.001,64.13 c8.565,8.565,19.953,13.282,32.064,13.282c12.113,0,23.501-4.717,32.064-13.282c8.566-8.565,13.282-19.953,13.282-32.065 c0-12.113-4.716-23.501-13.282-32.065C214.157,280.762,202.769,276.043,190.656,276.043z M211.581,342.315h-0.001 c-5.588,5.589-13.019,8.666-20.924,8.666c-7.904,0-15.335-3.078-20.924-8.666c-11.537-11.538-11.537-30.311,0-41.849 c5.589-5.589,13.02-8.668,20.924-8.668s15.336,3.079,20.925,8.668c5.589,5.589,8.666,13.02,8.666,20.924 S217.17,336.726,211.581,342.315z"/> <path d="M497.214,70.131l-55.298-55.298l-68.105,68.104l4.416,4.416L270.042,195.538l11.141,11.14l23.458-23.458l24.185,24.185 l-23.458,23.458l11.141,11.141L424.694,133.82l4.416,4.416L497.214,70.131z M441.916,37.113l33.018,33.018l-45.823,45.824 l-33.019-33.018L441.916,37.113z M358.145,129.715l10.04-10.04l24.186,24.186l-10.04,10.04L358.145,129.715z M371.191,165.043 l-10.04,10.04l-24.186-24.185l10.041-10.041L371.191,165.043z M315.783,172.079l10.04-10.04l24.186,24.185l-10.041,10.041 L315.783,172.079z M403.513,132.721l-24.186-24.186l10.041-10.041l24.187,24.185L403.513,132.721z"/> <path d="M155.941,247.817l11.141,11.14c17.549-17.549,44.652-22.651,67.439-12.694l6.308-14.437 C212.156,219.296,178.039,225.721,155.941,247.817z"/> <rect x="406.82" y="3.263" transform="matrix(-0.7071 -0.7071 0.7071 -0.7071 700.0546 312.2533)" width="15.755" height="15.755"/> <rect x="384.523" y="25.565" transform="matrix(-0.7071 -0.7071 0.7071 -0.7071 646.2216 334.5589)" width="15.755" height="15.755"/> <rect x="492.961" y="89.413" transform="matrix(-0.7071 0.7071 -0.7071 -0.7071 923.7789 -188.0614)" width="15.755" height="15.755"/> <rect x="470.706" y="111.704" transform="matrix(0.7071 0.7071 -0.7071 0.7071 224.7308 -303.3851)" width="15.755" height="15.755"/> <path d="M155.905,411.846l-11.141-11.141l-5.57,5.57l-11.141-11.141l5.57-5.57l-11.139-11.141l-5.571,5.571l-11.141-11.141 l5.571-5.57l-11.141-11.14l-5.57,5.57l-8.63-8.63l-33.22,33.22l72.962,72.962l33.221-33.22l-8.63-8.63L155.905,411.846z M125.743,436.985l-50.681-50.681l10.938-10.939l50.682,50.681L125.743,436.985z"/> </g>
</svg>